<?xml version="1.0" encoding="iso-8859-1"?>
<!-- Generator: Adobe Illustrator 19.0.0, SVG Export Plug-In . SVG Version: 6.00 Build 0)  -->
<svg fill="rgb(199, 199, 199)" version="1.1" id="Layer_1" xmlns="http://www.w3.org/2000/svg" xmlns:xlink="http://www.w3.org/1999/xlink" x="0px" y="0px"
	 viewBox="0 0 512 512" style="enable-background:new 0 0 512 512;" xml:space="preserve">
<g>
	<g>
		<path d="M110.933,320c-28.237,0-51.2,22.963-51.2,51.2c0,28.237,22.963,51.2,51.2,51.2s51.2-22.963,51.2-51.2
			C162.133,342.963,139.17,320,110.933,320z M110.933,405.333c-18.825,0-34.133-15.309-34.133-34.133s15.309-34.133,34.133-34.133
			s34.133,15.309,34.133,34.133S129.758,405.333,110.933,405.333z"/>
	</g>
</g>
<g>
	<g>
		<path d="M396.919,320c-28.237,0-51.2,22.963-51.2,51.2c0,28.237,22.963,51.2,51.2,51.2c28.237,0,51.2-22.963,51.2-51.2
			C448.12,342.963,425.148,320,396.919,320z M396.919,405.333c-18.825,0-34.133-15.309-34.133-34.133s15.309-34.133,34.133-34.133
			s34.133,15.309,34.133,34.133S415.735,405.333,396.919,405.333z"/>
	</g>
</g>
<g>
	<g>
		<path d="M503.467,294.4h-8.533V98.133c0-4.719-3.823-8.533-8.533-8.533H221.867c-18.825,0-34.133,15.309-34.133,34.133v179.2
			h-17.067v-128c0-4.719-3.823-8.533-8.533-8.533h-102.4c-2.85,0-5.513,1.425-7.1,3.797l-51.2,76.8
			C0.503,248.397,0,250.052,0,251.733V345.6c0,4.719,3.823,8.533,8.533,8.533h25.6c3.618,0,6.844-2.287,8.047-5.692
			c9.617-27.213,35.49-45.508,64.384-45.508c17.937,0,39.518,6.519,50.202,15.164c1.545,1.254,3.447,1.903,5.367,1.903h25.6v25.6
			c0,4.719,3.823,8.533,8.533,8.533h128.222c3.618,0,6.844-2.287,8.047-5.692c9.617-27.213,35.49-45.508,64.384-45.508
			c28.732,0,54.485,18.099,64.23,45.082c1.041,3.533,4.309,6.118,8.183,6.118h34.133c4.71,0,8.533-3.814,8.533-8.533v-42.667
			C512,298.214,508.177,294.4,503.467,294.4z M64.299,183.467h55.168V243.2H24.474L64.299,183.467z M153.6,296.311
			c-15.147-7.125-33.527-10.445-47.036-10.445c-34.057,0-64.759,20.344-78.234,51.2H17.067V294.4H25.6
			c4.71,0,8.533-3.814,8.533-8.533c0-4.719-3.823-8.533-8.533-8.533h-8.533v-17.067H128c4.71,0,8.533-3.814,8.533-8.533v-68.267
			H153.6V296.311z M494.933,337.067h-19.789c-13.474-30.857-44.177-51.2-78.225-51.2c-34.057,0-64.759,20.344-78.234,51.2H204.8
			V123.733c0-9.412,7.654-17.067,17.067-17.067h256v153.6h-8.533c-4.71,0-8.533,3.814-8.533,8.533s3.823,8.533,8.533,8.533h8.533
			v25.6c0,4.719,3.823,8.533,8.533,8.533h8.533V337.067z"/>
	</g>
</g>
<g>
</g>
<g>
</g>
<g>
</g>
<g>
</g>
<g>
</g>
<g>
</g>
<g>
</g>
<g>
</g>
<g>
</g>
<g>
</g>
<g>
</g>
<g>
</g>
<g>
</g>
<g>
</g>
<g>
</g>
</svg>
